<svg id="Layer_1" data-name="Layer 1" xmlns="http://www.w3.org/2000/svg" viewBox="0 0 600.55 237.09"><defs><style>.cls-1{fill:#231f20;}.cls-2,.cls-4{fill:#005cb9;}.cls-2,.cls-3{fill-rule:evenodd;}.cls-3,.cls-5{fill:#fff;}.cls-6{fill:#313415;}</style></defs><title>Artboard 2</title><polyline class="cls-1" points="147.31 237.09 142.24 232.23 137.27 237.09 133.38 237.09 140.28 230.34 133.87 224.17 137.51 224.17 142.07 228.59 146.59 224.17 150.47 224.17 144.04 230.46 150.96 237.09 147.31 237.09"/><path class="cls-1" d="M158.06,226.58v2.74h4.08a4.88,4.88,0,0,0,4.69-2.74Zm3.67,5.26h-3.67v5.25h-2.93v-5.25h-3v-2.52h3v-5.15h15.58a8.78,8.78,0,0,1-9,7.67"/><path class="cls-1" d="M177.29,226.58v2.74h4.07a4.88,4.88,0,0,0,4.69-2.74Zm9.53,10.51c-.43-3.3-2.45-5.25-5.46-5.25h-4.07v5.25h-2.94v-5.25h-3v-2.52h3v-5.15h15.58c-.56,3.18-2.38,5.56-5,6.42,2.58.67,4.79,3.66,5.1,6.5h-3.23"/><polyline class="cls-1" points="195.47 237.09 195.47 231.84 192.5 231.84 192.5 229.32 195.47 229.32 195.47 224.17 210.05 224.17 210.05 226.58 198.4 226.58 198.4 229.32 208.13 229.32 208.13 231.84 198.4 231.84 198.4 234.69 210.05 234.69 210.05 237.09 195.47 237.09"/><polyline class="cls-1" points="213.76 237.09 213.76 234.69 226.17 234.69 226.17 231.84 213.76 231.84 213.76 224.17 229.1 224.17 229.1 226.58 216.7 226.58 216.7 229.32 229.1 229.32 229.1 237.09 213.76 237.09"/><polyline class="cls-1" points="233.66 237.09 233.66 234.69 246.07 234.69 246.07 231.84 233.66 231.84 233.66 224.17 249 224.17 249 226.58 236.6 226.58 236.6 229.32 249 229.32 249 237.09 233.66 237.09"/><polyline class="cls-1" points="269.87 226.7 269.87 237.09 266.86 237.09 266.86 226.7 260.8 226.7 260.8 224.17 275.94 224.17 275.94 226.7 269.87 226.7"/><path class="cls-1" d="M283.32,226.58v2.74h4.05a4.85,4.85,0,0,0,4.67-2.74Zm9.5,10.51c-.43-3.3-2.45-5.25-5.45-5.25h-4.05v5.25h-2.94v-5.25h-3v-2.52h3v-5.15h15.55c-.56,3.18-2.38,5.56-5,6.42,2.58.67,4.79,3.66,5.1,6.5h-3.23"/><path class="cls-1" d="M313.89,226.58H304.4v2.74h9.49v-2.74Zm0,10.51v-5.25H304.4v5.25h-2.94v-5.25h-3v-2.52h3v-5.15h15.37v12.92h-2.94"/><polyline class="cls-1" points="333.5 237.09 324.39 227.55 324.39 237.09 321.39 237.09 321.39 224.17 324.81 224.17 333.71 233.55 333.71 224.17 336.73 224.17 336.73 237.09 333.5 237.09"/><polyline class="cls-1" points="341.29 237.09 341.29 234.69 353.69 234.69 353.69 231.84 341.29 231.84 341.29 224.17 356.63 224.17 356.63 226.58 344.23 226.58 344.23 229.32 356.63 229.32 356.63 237.09 341.29 237.09"/><path class="cls-1" d="M365.75,226.58v2.74h4.08a4.86,4.86,0,0,0,4.68-2.74Zm3.67,5.26h-3.67v5.25h-2.94v-5.25h-3v-2.52h3v-5.15H378.4a8.78,8.78,0,0,1-9,7.67"/><path class="cls-1" d="M393.66,226.7h-10a10.7,10.7,0,0,0,0,7.87h10a10.7,10.7,0,0,0,0-7.87Zm2.16,10.39H381.55a13.77,13.77,0,0,1,0-12.92h14.27a13.84,13.84,0,0,1,0,12.92"/><path class="cls-1" d="M406.09,226.58v2.74h4.07a4.87,4.87,0,0,0,4.69-2.74Zm9.54,10.51c-.44-3.3-2.46-5.25-5.47-5.25h-4.07v5.25h-2.94v-5.25h-3v-2.52h3v-5.15h15.58c-.56,3.18-2.37,5.56-5,6.42,2.57.67,4.78,3.66,5.09,6.5h-3.22"/><polyline class="cls-1" points="429.96 226.7 429.96 237.09 426.96 237.09 426.96 226.7 420.89 226.7 420.89 224.17 436.04 224.17 436.04 226.7 429.96 226.7"/><polyline class="cls-1" points="447.83 237.09 447.83 224.17 451.06 224.17 451.06 234.57 461.37 234.57 461.37 237.09 447.83 237.09"/><polyline class="cls-1" points="464.19 237.09 464.19 224.17 467.41 224.17 467.41 234.57 477.73 234.57 477.73 237.09 464.19 237.09"/><path class="cls-1" d="M481.08,237.09a13.84,13.84,0,0,1,0-12.92h13.59v2.53H483.24a10.7,10.7,0,0,0,0,7.87h11.43v2.52H481.08"/><path class="cls-2" d="M423.3,151.67c2.25-22,16.49-34.35,15.19-33.06,25.17-25.12,67.4-23.58,102-47.69C572.73,48.48,567.18.14,567.18.14s22.75,46.63-8,87.63c28.17-16.09,32.52-55.49,32.52-55.49s7.79,52.32-20.84,72.49c19.76-.35,29.69-24.09,29.69-24.09s-.34,42-32.09,46.22c0,0,15,6.59,27.62-.51-11.21,30.31-49.84,38.68-49.84,38.68C531.87,195.92,499,211,469.57,201.57c.94.3-2.35,7-8.34,10-7,3.46,6.53-23.28-5.47-46.68-7.55-14.7-33.55-2.56-32.46-13.18"/><path class="cls-3" d="M499.5,124.48c-28.85,4.08-48,18.4-38.34,41.23,14,33,53.88,18.89,65.52,2.67,0,0-12.49.49-23.63-2.4,26.58-3,54.27-27.61,54.27-27.61s-31.65,8.41-51.61,7.8c41.93-14.93,60.5-50.8,60.5-50.8s-24.13,23.11-66.71,29.11"/><path class="cls-3" d="M434.37,140.37a53.86,53.86,0,0,1,16.94-21.75c28.57-21.36,79.36-15.19,111.22-56-22.73,54.87-65.22,41.48-98.92,60.93-10.43,6-31.74,33.54-7,69.55,1.23,1.79,2.82,3.68,4.28,5.51-1.15,1.08-2.66,3.74-4.43,2.88-1.47-.71-3.75-.38-4.17-2.25-7.52-32.91-17.37-17.55-19.57-27.46a63.47,63.47,0,0,1,.92-29.17l.74-2.23"/><path class="cls-2" d="M169.56,128.25c-4.15-7-8.23-10.49-7.51-9.78C136.88,93.35,94.65,94.89,60,70.78,27.81,48.34,33.37,0,33.37,0s-22.76,46.63,8,87.63C13.2,71.54,8.85,32.14,8.85,32.14s-7.8,52.32,20.83,72.49C9.92,104.28,0,80.54,0,80.54s.34,42,32.09,46.22c0,0-15.05,6.59-27.63-.51,11.21,30.31,49.83,38.68,49.83,38.68,14.39,30.84,47.29,45.92,76.7,36.5-1.51.48,7.65,17.11,21.36,9.2,5.07-2.93-9.23-11.39-7.26-25.4,7.33-52.18,31.38-45.28,24.47-57"/><path class="cls-3" d="M101,124.35c28.86,4.07,48,18.4,38.35,41.23-14,33-53.89,18.89-65.52,2.66,0,0,12.48.49,23.62-2.39-26.57-3-54.27-27.62-54.27-27.62s31.65,8.41,51.61,7.8c-41.92-14.93-60.5-50.81-60.5-50.81S58.46,118.34,101,124.35"/><path class="cls-3" d="M166.18,140.23a53.86,53.86,0,0,0-16.94-21.75C120.67,97.12,69.88,103.29,38,62.47c22.72,54.87,65.21,41.48,98.92,60.93,10.42,6,31.74,33.54,7,69.55-1.22,1.79-2.81,3.68-4.27,5.51,1.15,1.08,2.65,3.73,4.42,2.89,2.74-1.32,7.95-1.08,7.39-4.37-4.67-27.28,1.59-45.17,17.64-37.26,6.81,3.36-2.16-17.27-2.2-17.26l-.74-2.23"/><path class="cls-4" d="M355.86,182.62H318.42a32.53,32.53,0,0,1,0-24h37.44a32.4,32.4,0,0,1,0,24M497.1,197.57c-1.93-10.69-7.27-20.83-14-27.55a50.11,50.11,0,0,0,13.15-25.64s2.68-14.26,7.75-18.86H390.54v11.83a68.58,68.58,0,0,0-5.06-11.83H288.11a68.65,68.65,0,0,0-4.92,11.41V125.52H247.53v28.19h-32V125.52H90.42v33h33.25v56.91h35.67V158.53H180v56.91h35.67V186.72h31.89v28.72h35.66V204a68.52,68.52,0,0,0,4.92,11.43h97.37a68.46,68.46,0,0,0,5.06-11.85v11.85H425.8V186.72H429c16.49,0,27.52,10.63,29.92,28.72h51.23c-11.13-5.52-13.05-18.53-13-17.87"/><path class="cls-5" d="M309.38,170.47a56.56,56.56,0,0,1,4-17.7h46.86a56.58,56.58,0,0,1,4,17.7,56.7,56.7,0,0,1-4,17.72H313.36a56.68,56.68,0,0,1-4-17.72M420.05,152.1H455c-4.86,4.53-12,7.36-20.28,7.36H420.05V152.1Zm70.85,50.3c-2.56-14.12-10.25-25.7-20.57-32.3,9.8-6.31,17.09-17.66,19.52-31.47,0,0,.83-5.42,2.34-7.36h-95.9v28.19h-8.12a73.09,73.09,0,0,0-8.45-28.19H293.86a73.25,73.25,0,0,0-8.43,28.19h-8V131.27H253.28v28.19H209.75V131.27H96.18v21.5h33.24v56.92h24.16V152.77h32.14v56.92h24.16V181h43.4v28.73h24.16V181h7.94a73.57,73.57,0,0,0,8.48,28.73h85.86A73.41,73.41,0,0,0,388.21,181h8.08v28.73h23.76V181h14.67c16.49,0,27.53,10.64,29.93,28.73H494.3c-2.86-2.46-3.42-7.95-3.4-7.29"/><path class="cls-6" d="M416.21,163.3v-15h48c-3.59,8.77-13.3,15-25.66,15ZM364.06,192H309.53a58.39,58.39,0,0,1,0-43.09h54.53a58.39,58.39,0,0,1,0,43.09m94.18-21.81c14.22-4.65,24.2-17.68,27.26-35.11H400.12v28.2H384.33a73.19,73.19,0,0,0-8.44-28.2H297.7a73.54,73.54,0,0,0-8.44,28.2H273.6V135.1H257.11v28.2H205.92V135.1H189.56v70.75h16.49V177.13h51.06v28.72H273.6V177.13h15.62a73.31,73.31,0,0,0,8.48,28.72h78.19a73.31,73.31,0,0,0,8.48-28.72h15.75v28.72h16.09V177.13h22.35c16.48,0,27.52,10.64,29.92,28.72h17.69c-1.73-15.56-13.84-31.92-27.93-35.64M100,148.93h33.25v56.92h16.49V148.93H183V135.1H100v13.83"/></svg>